<?xml version="1.0" standalone="no"?>
<!DOCTYPE svg PUBLIC "-//W3C//DTD SVG 20010904//EN"
 "http://www.w3.org/TR/2001/REC-SVG-20010904/DTD/svg10.dtd">
<svg version="1.0" xmlns="http://www.w3.org/2000/svg"
 width="200.000000pt" height="200.000000pt" viewBox="0 0 200.000000 200.000000"
 preserveAspectRatio="xMidYMid meet">

<g transform="translate(0.000000,200.000000) scale(0.100000,-0.100000)"
fill="#000000" stroke="none">
<path d="M814 1267 c-2 -7 -3 -69 -2 -138 l3 -124 78 -3 77 -3 0 -29 c0 -17 4
-30 8 -30 5 0 7 14 4 30 l-4 30 104 0 c68 0 108 4 116 12 17 17 17 239 0 256
-18 18 -377 17 -384 -1z m381 -127 l0 -125 -187 -3 -188 -2 0 130 0 130 188
-2 187 -3 0 -125z"/>
<path d="M1006 1144 c-15 -36 -25 -68 -23 -70 2 -2 16 26 30 63 15 37 25 68
23 70 -2 2 -16 -26 -30 -63z"/>
<path d="M925 1180 c-3 -6 1 -7 9 -4 18 7 21 14 7 14 -6 0 -13 -4 -16 -10z"/>
<path d="M1104 1166 c10 -9 24 -18 30 -21 8 -4 8 -6 0 -10 -6 -3 -20 -12 -30
-21 -14 -11 -9 -10 19 3 20 9 37 20 37 23 0 3 -17 14 -37 23 -28 13 -33 14
-19 3z"/>
<path d="M883 1158 c-30 -14 -29 -22 5 -37 25 -10 26 -10 8 4 -20 15 -20 15 0
30 22 17 18 18 -13 3z"/>
<path d="M927 1099 c7 -7 15 -10 18 -7 3 3 -2 9 -12 12 -14 6 -15 5 -6 -5z"/>
<path d="M824 850 c8 -33 51 -130 57 -130 4 0 10 11 13 25 8 32 20 32 35 -1 6
-15 13 -25 15 -23 8 8 56 133 52 136 -2 2 -13 -21 -26 -52 -12 -30 -26 -55
-31 -55 -15 0 -22 51 -10 78 10 24 10 25 -2 10 -17 -22 -27 -23 -27 -3 0 8 -4
15 -10 15 -6 0 -5 -9 1 -24 12 -25 5 -76 -9 -76 -4 0 -20 26 -35 58 -15 31
-25 50 -23 42z"/>
<path d="M1022 783 l2 -68 4 60 3 60 30 -35 29 -35 24 29 25 30 3 -49 c2 -32
8 -50 18 -53 13 -5 13 -3 2 11 -9 11 -13 35 -10 67 1 27 0 50 -3 50 -4 0 -17
-16 -30 -35 -13 -19 -27 -35 -31 -35 -3 0 -16 16 -28 35 -12 19 -26 35 -31 35
-5 0 -8 -30 -7 -67z"/>
</g>
</svg>
